<?xml version="1.0" encoding="UTF-8"?>
<!DOCTYPE svg PUBLIC "-//W3C//DTD SVG 1.1//EN" "http://www.w3.org/Graphics/SVG/1.1/DTD/svg11.dtd">
<svg xmlns="http://www.w3.org/2000/svg" version="1.1" width="45px" height="45px" style="shape-rendering:geometricPrecision; text-rendering:geometricPrecision; image-rendering:optimizeQuality; fill-rule:evenodd; clip-rule:evenodd" xmlns:xlink="http://www.w3.org/1999/xlink">
<g><path style="opacity:0.993" fill="#21b06b" d="M 2.5,-0.5 C 15.5,-0.5 28.5,-0.5 41.5,-0.5C 42.5,0.5 43.5,1.5 44.5,2.5C 44.5,15.5 44.5,28.5 44.5,41.5C 43.5,42.5 42.5,43.5 41.5,44.5C 28.5,44.5 15.5,44.5 2.5,44.5C 1.44886,43.7777 0.782189,42.7777 0.5,41.5C 4.03402,34.1019 7.86736,26.7685 12,19.5C 11.2826,24.1074 10.9492,28.7741 11,33.5C 13.7467,36.0341 16.4133,36.0341 19,33.5C 22.0912,28.9863 25.4245,24.653 29,20.5C 28.2445,24.4575 27.2445,28.4575 26,32.5C 24.3338,39.8301 27.1671,42.9968 34.5,42C 34.6582,38.2798 34.8249,34.4464 35,30.5C 37.6409,23.3844 40.1409,16.2177 42.5,9C 42.2451,7.67386 41.5784,6.67386 40.5,6C 38.1667,5.33333 35.8333,5.33333 33.5,6C 28.9472,10.9023 24.2806,15.2357 19.5,19C 21.2844,13.9885 21.7844,8.82186 21,3.5C 18.4449,1.35045 15.6116,1.01711 12.5,2.5C 7.89089,9.39642 3.55756,16.3964 -0.5,23.5C -0.5,16.5 -0.5,9.5 -0.5,2.5C 0.5,1.5 1.5,0.5 2.5,-0.5 Z"/></g>
<g><path style="opacity:0.999" fill="#fafdfb" d="M 0.5,41.5 C 0.166667,41.5 -0.166667,41.5 -0.5,41.5C -0.5,35.5 -0.5,29.5 -0.5,23.5C 3.55756,16.3964 7.89089,9.39642 12.5,2.5C 15.6116,1.01711 18.4449,1.35045 21,3.5C 21.7844,8.82186 21.2844,13.9885 19.5,19C 24.2806,15.2357 28.9472,10.9023 33.5,6C 35.8333,5.33333 38.1667,5.33333 40.5,6C 41.5784,6.67386 42.2451,7.67386 42.5,9C 40.1409,16.2177 37.6409,23.3844 35,30.5C 34.8249,34.4464 34.6582,38.2798 34.5,42C 27.1671,42.9968 24.3338,39.8301 26,32.5C 27.2445,28.4575 28.2445,24.4575 29,20.5C 25.4245,24.653 22.0912,28.9863 19,33.5C 16.4133,36.0341 13.7467,36.0341 11,33.5C 10.9492,28.7741 11.2826,24.1074 12,19.5C 7.86736,26.7685 4.03402,34.1019 0.5,41.5 Z"/></g>
</svg>
